<?xml version="1.0" encoding="UTF-8"?> <svg xmlns="http://www.w3.org/2000/svg" width="24072" height="7770" viewBox="0 0 24072 7770" fill="none"> <path d="M367.271 972.796C473.511 972.796 557.175 958.188 618.263 928.972C682.007 897.1 728.487 857.26 757.703 809.452C789.575 761.644 820.119 699.228 849.335 622.204H1144.15V3411H705.911V1283.55H367.271V972.796ZM2258.7 1291.52C2258.7 1068.41 2315.81 895.772 2430.02 773.596C2544.22 651.42 2708.89 590.332 2924.03 590.332C3139.17 590.332 3303.84 651.42 3418.05 773.596C3532.25 895.772 3589.36 1068.41 3589.36 1291.52V2741.69C3589.36 2964.79 3532.25 3137.43 3418.05 3259.61C3303.84 3381.78 3139.17 3442.87 2924.03 3442.87C2708.89 3442.87 2544.22 3381.78 2430.02 3259.61C2315.81 3137.43 2258.7 2964.79 2258.7 2741.69V1291.52ZM2696.94 2769.58C2696.94 2952.84 2772.64 3044.47 2924.03 3044.47C3075.42 3044.47 3151.12 2952.84 3151.12 2769.58V1263.63C3151.12 1080.36 3075.42 988.732 2924.03 988.732C2772.64 988.732 2696.94 1080.36 2696.94 1263.63V2769.58ZM5041.46 0.700962C5041.46 138.813 5001.62 247.709 4921.94 327.389C4842.26 404.412 4726.73 442.924 4575.33 442.924C4426.6 442.924 4313.72 404.412 4236.69 327.389C4162.33 250.365 4122.49 141.469 4117.17 0.700962H4388.09C4393.4 72.4129 4410.66 121.549 4439.88 148.109C4469.09 172.013 4514.25 183.965 4575.33 183.965C4639.08 183.965 4686.89 170.685 4718.76 144.125C4750.63 117.565 4769.22 69.7569 4774.53 0.700962H5041.46ZM4870.15 1446.89V3411H5264.56V622.204H4782.5L4423.94 1773.58L4264.58 2387.11V622.204H3874.15V3411H4324.34L4690.87 2132.14L4870.15 1446.89ZM5458.63 3016.58C5530.34 3016.58 5583.46 3011.27 5617.99 3000.65C5655.17 2987.37 5681.73 2960.81 5697.67 2920.97C5716.26 2878.47 5726.88 2814.73 5729.54 2729.74L5801.25 622.204H7040.27V3411H6594.07V1020.6H6211.6L6163.8 2705.83C6155.83 2960.81 6102.71 3142.74 6004.44 3251.64C5906.16 3360.54 5746.8 3414.98 5526.36 3414.98H5458.63V3016.58ZM7375.71 3411V622.204H7766.14V2387.11L7925.5 1773.58L8284.06 622.204H8766.12V3411H8371.71V1446.89L8192.43 2132.14L7825.9 3411H7375.71ZM9514.15 2554.44V3411H9075.91V622.204H9514.15V1837.32L10087.8 622.204H10526.1L9916.53 1865.21L10526.1 3411H10075.9L9649.6 2299.47L9514.15 2554.44ZM13723.8 6538.44V7395H13285.6V4606.2H13723.8V5821.32L14297.5 4606.2H14735.7L14126.2 5849.21L14735.7 7395H14285.5L13859.3 6283.47L13723.8 6538.44ZM15907.3 6685.85C15872.7 6853.18 15827.6 6988.63 15771.8 7092.22C15718.7 7193.14 15641.7 7270.17 15540.7 7323.29C15442.5 7376.41 15309.7 7402.97 15142.3 7402.97C15091.9 7402.97 15052 7401.64 15022.8 7398.98V7008.55C15041.4 7011.21 15068 7012.54 15102.5 7012.54C15195.5 7012.54 15265.9 6995.27 15313.7 6960.74C15361.5 6926.22 15393.3 6866.46 15409.3 6781.46L15413.3 6757.56L14807.7 4606.2H15241.9L15481 5558.38L15616.4 6211.75L15720 5562.36L15919.2 4606.2H16377.4L15907.3 6685.85ZM17206.9 4606.2C17424.7 4606.2 17588 4664.64 17696.9 4781.5C17805.8 4898.36 17860.2 5069.68 17860.2 5295.44V5657.98C17860.2 5883.74 17805.8 6055.05 17696.9 6171.91C17588 6288.78 17424.7 6347.21 17206.9 6347.21H16999.7V7395H16561.5V4606.2H17206.9ZM16999.7 5948.81H17206.9C17278.6 5948.81 17331.7 5928.89 17366.2 5889.05C17403.4 5849.21 17422 5781.48 17422 5685.87V5267.55C17422 5171.93 17403.4 5104.2 17366.2 5064.36C17331.7 5024.52 17278.6 5004.6 17206.9 5004.6H16999.7V5948.81ZM19334.1 6725.69C19334.1 6951.45 19278.4 7125.42 19166.8 7247.59C19055.3 7367.11 18893.2 7426.87 18680.8 7426.87C18468.3 7426.87 18306.3 7367.11 18194.7 7247.59C18083.2 7125.42 18027.4 6951.45 18027.4 6725.69V5275.52C18027.4 5049.76 18083.2 4877.12 18194.7 4757.6C18306.3 4635.42 18468.3 4574.33 18680.8 4574.33C18893.2 4574.33 19055.3 4635.42 19166.8 4757.6C19278.4 4877.12 19334.1 5049.76 19334.1 5275.52V5546.43H18919.8V5247.63C18919.8 5064.36 18844.1 4972.73 18692.7 4972.73C18541.3 4972.73 18465.6 5064.36 18465.6 5247.63V6753.58C18465.6 6934.18 18541.3 7024.49 18692.7 7024.49C18844.1 7024.49 18919.8 6934.18 18919.8 6753.58V6355.18H19334.1V6725.69ZM19600 7395V4606.2H19990.5V6371.11L20149.8 5757.58L20508.4 4606.2H20990.4V7395H20596V5430.89L20416.8 6116.14L20050.2 7395H19600Z" fill="white"></path> <path d="M11348.1 622.204H12575.2V1020.6H11786.4V1733.74H12041.3C12259.1 1733.74 12423.8 1793.5 12535.4 1913.02C12646.9 2029.88 12702.7 2199.87 12702.7 2422.97V2721.77C12702.7 2944.87 12646.9 3116.18 12535.4 3235.7C12423.8 3352.57 12259.1 3411 12041.3 3411H11348.1V622.204ZM12041.3 3012.6C12115.7 3012.6 12171.5 2992.68 12208.7 2952.84C12245.8 2913 12264.4 2845.27 12264.4 2749.66V2395.08C12264.4 2299.47 12245.8 2231.74 12208.7 2191.9C12171.5 2152.06 12115.7 2132.14 12041.3 2132.14H11786.4V3012.6H12041.3ZM12997.7 3411V622.204H13388.1V2387.11L13547.4 1773.58L13906 622.204H14388.1V3411H13993.7V1446.89L13814.4 2132.14L13447.8 3411H12997.7ZM15542.5 1307.45C15542.5 1187.93 15522.5 1105.6 15482.7 1060.44C15445.5 1012.64 15389.7 988.732 15315.4 988.732C15161.3 988.732 15084.3 1080.36 15084.3 1263.63V1490.71H14681.9V1283.55C14681.9 1057.79 14736.4 886.476 14845.3 769.612C14954.2 650.092 15114.8 590.332 15327.3 590.332C15539.8 590.332 15701.8 651.42 15813.4 773.596C15924.9 893.116 15980.7 1065.76 15980.7 1291.52V1363.23C15980.7 1514.62 15955.5 1638.12 15905 1733.74C15854.5 1826.7 15777.5 1894.43 15673.9 1936.92C15878.4 2027.23 15980.7 2222.44 15980.7 2522.57V2741.69C15980.7 2967.45 15924.9 3141.42 15813.4 3263.59C15701.8 3383.11 15539.8 3442.87 15327.3 3442.87C15114.8 3442.87 14952.8 3383.11 14841.3 3263.59C14729.7 3141.42 14673.9 2967.45 14673.9 2741.69V2434.92H15088.3V2769.58C15088.3 2952.84 15164 3044.47 15315.4 3044.47C15389.7 3044.47 15445.5 3021.9 15482.7 2976.74C15522.5 2928.94 15542.5 2846.6 15542.5 2729.74V2510.62C15542.5 2383.13 15519.9 2292.83 15474.7 2239.71C15429.6 2183.93 15356.5 2156.04 15255.6 2156.04H15148V1757.64H15279.5C15367.2 1757.64 15432.2 1735.07 15474.7 1689.91C15519.9 1644.76 15542.5 1569.07 15542.5 1462.83V1307.45ZM16277.4 3411V622.204H16715.7V1817.4H17213.7V622.204H17659.9V3411H17213.7V2215.8H16715.7V3411H16277.4ZM19017.5 1797.48V2195.88H18415.9V3012.6H19172.8V3411H17977.6V622.204H19172.8V1020.6H18415.9V1797.48H19017.5ZM20715.3 2741.69C20715.3 2967.45 20659.5 3141.42 20548 3263.59C20436.4 3383.11 20274.4 3442.87 20061.9 3442.87C19849.4 3442.87 19687.4 3383.11 19575.9 3263.59C19464.3 3141.42 19408.6 2967.45 19408.6 2741.69V1291.52C19408.6 1065.76 19464.3 893.116 19575.9 773.596C19687.4 651.42 19849.4 590.332 20061.9 590.332C20274.4 590.332 20436.4 651.42 20548 773.596C20659.5 893.116 20715.3 1065.76 20715.3 1291.52V1562.43H20301V1263.63C20301 1080.36 20225.3 988.732 20073.9 988.732C19922.5 988.732 19846.8 1080.36 19846.8 1263.63V2769.58C19846.8 2950.18 19922.5 3040.49 20073.9 3040.49C20225.3 3040.49 20301 2950.18 20301 2769.58V2371.18H20715.3V2741.69ZM20981.2 3411V622.204H21419.4V1817.4H21917.4V622.204H22363.6V3411H21917.4V2215.8H21419.4V3411H20981.2ZM22681.4 3411V622.204H23071.8V2387.11L23231.2 1773.58L23589.8 622.204H24071.8V3411H23677.4V1446.89L23498.1 2132.14L23131.6 3411H22681.4ZM1363.27 7395H427.031V7769.5H0.743905V7004.57H172.056C209.24 6959.42 234.472 6908.95 247.752 6853.18C263.688 6797.4 274.312 6727.02 279.623 6642.03L379.223 4606.2H1606.29V7004.57H1797.53V7769.5H1363.27V7395ZM709.895 6634.06C704.583 6734.98 691.303 6813.34 670.055 6869.11C651.463 6924.89 623.575 6970.04 586.391 7004.57H1160.09V5004.6H789.575L709.895 6634.06ZM3017.75 7395L2942.05 6889.03H2404.21L2328.52 7395H1926.13L2372.34 4606.2H3013.76L3459.97 7395H3017.75ZM2882.29 6510.55L2671.14 5100.22L2459.99 6510.55H2882.29ZM4325.4 4606.2C4551.16 4606.2 4715.83 4659.32 4819.42 4765.56C4923 4869.15 4974.79 5029.84 4974.79 5247.63V5347.23C4974.79 5490.65 4950.89 5608.84 4903.08 5701.8C4857.93 5794.76 4787.54 5863.82 4691.93 5908.97C4909.72 5993.96 5018.62 6193.16 5018.62 6506.57V6733.66C5018.62 6948.79 4961.51 7113.46 4847.3 7227.67C4735.75 7339.22 4571.08 7395 4353.29 7395H3664.06V4606.2H4325.4ZM4102.3 5741.64H4273.61C4361.26 5741.64 4426.33 5719.07 4468.82 5673.91C4513.98 5628.76 4536.55 5553.07 4536.55 5446.83V5291.45C4536.55 5190.52 4517.96 5117.48 4480.78 5072.33C4446.25 5027.18 4390.47 5004.6 4313.45 5004.6H4102.3V5741.64ZM4102.3 6996.6H4353.29C4430.31 6996.6 4487.42 6976.68 4524.6 6936.84C4561.78 6894.34 4580.38 6822.63 4580.38 6721.7V6478.68C4580.38 6351.19 4557.8 6263.55 4512.65 6215.74C4470.15 6165.27 4398.44 6140.04 4297.51 6140.04H4102.3V6996.6ZM5246.7 5275.52C5246.7 5052.41 5303.8 4879.77 5418.01 4757.6C5532.22 4635.42 5696.89 4574.33 5912.03 4574.33C6127.16 4574.33 6291.83 4635.42 6406.04 4757.6C6520.25 4879.77 6577.35 5052.41 6577.35 5275.52V6725.69C6577.35 6948.79 6520.25 7121.43 6406.04 7243.61C6291.83 7365.78 6127.16 7426.87 5912.03 7426.87C5696.89 7426.87 5532.22 7365.78 5418.01 7243.61C5303.8 7121.43 5246.7 6948.79 5246.7 6725.69V5275.52ZM5684.94 6753.58C5684.94 6936.84 5760.63 7028.47 5912.03 7028.47C6063.42 7028.47 6139.11 6936.84 6139.11 6753.58V5247.63C6139.11 5064.36 6063.42 4972.73 5912.03 4972.73C5760.63 4972.73 5684.94 5064.36 5684.94 5247.63V6753.58ZM6738.64 7000.58C6810.35 7000.58 6863.47 6995.27 6898 6984.65C6935.19 6971.37 6961.75 6944.81 6977.68 6904.97C6996.27 6862.47 7006.9 6798.73 7009.55 6713.74L7081.27 4606.2H8320.29V7395H7874.08V5004.6H7491.62L7443.81 6689.83C7435.84 6944.81 7382.72 7126.74 7284.45 7235.64C7186.18 7344.54 7026.82 7398.98 6806.37 7398.98H6738.64V7000.58ZM9631.8 7395L9556.1 6889.03H9018.27L8942.57 7395H8540.19L8986.39 4606.2H9627.82L10074 7395H9631.8ZM9496.34 6510.55L9285.19 5100.22L9074.04 6510.55H9496.34ZM10278.1 4606.2H10716.3V6996.6H11094.8V4606.2H11533.1V6996.6H11911.5V4606.2H12349.8V7395H10278.1V4606.2Z" fill="#4DAA8A"></path> </svg> 